<?xml version="1.0" standalone="no"?>
<!DOCTYPE svg PUBLIC "-//W3C//DTD SVG 20010904//EN"
 "http://www.w3.org/TR/2001/REC-SVG-20010904/DTD/svg10.dtd">
<svg version="1.0" xmlns="http://www.w3.org/2000/svg"
 width="512.000000pt" height="512.000000pt" viewBox="0 0 512.000000 512.000000"
 preserveAspectRatio="xMidYMid meet" fill="red">

<g transform="translate(0.000000,512.000000) scale(0.100000,-0.100000)"
fill="#000000" stroke="none">
<path d="M2384 5110 c-871 -62 -1644 -558 -2067 -1326 -294 -533 -385 -1180
-251 -1784 145 -648 552 -1230 1117 -1594 846 -546 1947 -536 2789 24 621 412
1016 1043 1124 1795 24 164 24 504 0 670 -99 693 -450 1292 -998 1706 -489
368 -1109 552 -1714 509z m-79 -1034 c69 -31 117 -76 150 -138 l28 -53 78 0
c77 0 79 1 91 29 42 101 165 187 272 190 68 1 96 -20 96 -74 0 -48 -23 -69
-90 -79 -28 -5 -64 -17 -78 -28 -26 -19 -73 -79 -72 -92 1 -3 18 -19 39 -36
93 -73 151 -197 151 -324 0 -83 -19 -148 -63 -222 l-34 -56 96 -7 c249 -17
433 -57 567 -121 74 -36 103 -57 157 -114 112 -119 161 -241 161 -401 0 -331
-261 -589 -596 -590 -65 0 -68 -1 -68 -24 0 -34 -46 -188 -80 -269 -44 -104
-105 -200 -173 -274 -74 -79 -139 -123 -230 -155 l-67 -23 0 -67 c0 -37 -5
-78 -11 -92 -16 -34 -63 -50 -97 -33 -38 17 -52 53 -52 128 l0 66 -42 13
c-210 62 -383 269 -473 564 -14 47 -29 104 -33 128 l-8 43 -55 -3 c-125 -6
-290 51 -391 134 -212 177 -274 485 -145 729 46 87 143 185 225 228 121 64
340 112 603 132 l86 7 -34 57 c-44 74 -63 139 -63 222 0 127 60 256 153 326
20 16 36 31 37 34 0 13 -46 73 -72 92 -14 11 -50 23 -78 28 -67 10 -90 31 -90
79 0 36 16 60 50 73 26 11 102 -2 155 -27z"/>
<path d="M2505 3731 c-91 -23 -161 -86 -189 -169 -62 -180 76 -364 261 -350
70 5 119 27 166 75 56 56 72 97 72 188 0 69 -4 86 -27 126 -31 52 -77 95 -124
115 -41 17 -122 25 -159 15z"/>
<path d="M2240 3039 c-273 -19 -496 -61 -598 -113 -70 -36 -144 -113 -183
-192 -62 -126 -50 -298 31 -422 151 -235 491 -265 675 -59 82 90 169 307 250
622 20 77 39 148 41 158 6 20 -15 20 -216 6z"/>
<path d="M2664 3033 c2 -10 21 -80 40 -156 79 -302 174 -536 256 -629 52 -60
160 -115 248 -126 193 -26 372 71 456 248 29 61 31 72 31 180 0 109 -2 119
-32 183 -37 78 -111 155 -184 193 -109 54 -316 93 -619 114 -200 14 -202 14
-196 -7z"/>
<path d="M2550 2796 c0 -24 -68 -243 -105 -341 -19 -50 -35 -94 -35 -98 0 -4
69 -7 154 -7 l153 0 -33 83 c-33 83 -114 341 -114 365 0 6 -4 12 -10 12 -5 0
-10 -6 -10 -14z"/>
<path d="M2260 2132 c-36 -37 -92 -81 -125 -99 l-60 -32 490 0 490 0 -47 23
c-67 32 -150 97 -178 140 l-25 36 -240 -1 -240 0 -65 -67z"/>
<path d="M2115 1818 c4 -13 21 -57 39 -98 l31 -75 375 0 375 0 31 75 c18 41
35 85 39 98 l6 22 -451 0 -451 0 6 -22z"/>
<path d="M2335 1455 c17 -13 53 -37 80 -52 45 -25 59 -28 145 -28 86 0 100 3
145 28 28 15 64 39 80 52 l30 25 -255 0 -255 0 30 -25z"/>
</g>
</svg>
